<svg xmlns="http://www.w3.org/2000/svg" viewBox="0 0 116 50" style="enable-background:new 0 0 116 50" xml:space="preserve"><path d="M52.5-.4v10.5h10.8v40.3h52V-.4H52.5z" style="fill:#007c82"/><path d="M.7-.4v50.8h62.7V40.1H52.5V-.4H.7z" style="fill:#25368b"/><path d="m39.7 35.2-1 3.8c-2.8 1.3-5.8 2-9 2-9.7 0-17-6-17-15.3 0-11.7 8.2-17.2 18-17.2 3.2 0 6.3.7 9.3 2.2-.3 1.5-.7 3-1 4.7h-.7c-1.7-2.5-4.5-4-7.5-4.2-7.5 0-10.5 7.2-10.5 13.8 0 7.8 3.8 13.2 10.8 13.2 3-.2 6-1.3 8.2-3.3l.4.3zm63.5 0-1 3.8c-2.8 1.3-5.8 2-9 2-9.7 0-17-6-17-15.3 0-11.8 8.2-17.2 18-17.2 3.2 0 6.3.7 9.3 2.2-.3 1.5-.7 3-1 4.7h-.7c-1.7-2.5-4.5-4-7.5-4.2-7.5 0-10.5 7.2-10.5 13.8 0 7.8 3.7 13.2 10.8 13.2 3-.2 6-1.3 8.2-3.3l.4.3z" style="fill:#fff"/><path d="M52.5 10.1h10.8v30H52.5v-30z" style="fill:#e53812"/></svg>